# xmcd
#
# Track frame offsets:
#	150
#	18358
#	33715
#	47890
#	75571
#	114295
#	138996
#	153172
#	202353
#	212356
#	222274
#	230395
#	274123
#
# Disc length: 3780 seconds
#
# Revision: 1
# Processed by: cddbd v1.5.2PL0 Copyright (c) Steve Scherf et al.
# Submitted via: audiograbber 1.82.01
#
DISCID=b20ec20d
DTITLE=Attensam Quartett - Neue Wiener Lieder
DYEAR=2005
DGENRE=Folk
TTITLE0=Morgengruß
TTITLE1=Agazebam und Kastanien
TTITLE2=Libhazzdoe
TTITLE3=Winta
TTITLE4=Botswaach
TTITLE5=Ottakringer Tänze
TTITLE6=Die Geruchschmale
TTITLE7=Die Geruchschmale
TTITLE8=Dschali
TTITLE9=Warum denn
TTITLE10=Mia san mia
TTITLE11=Da Anfang vom End
TTITLE12=Die Windmühle
EXTD=
EXTT0=
EXTT1=
EXTT2=
EXTT3=
EXTT4=
EXTT5=
EXTT6=
EXTT7=
EXTT8=
EXTT9=
EXTT10=
EXTT11=
EXTT12=
PLAYORDER=
